<svg width="82" height="13" viewBox="0 0 82 13" fill="none" xmlns="http://www.w3.org/2000/svg">
<path d="M6.5 13C2.91015 13 0 10.0899 0 6.5C0 2.91015 2.91015 0 6.5 0C10.0899 0 13 2.91015 13 6.5C13 10.0899 10.0899 13 6.5 13Z" fill="#E3A7FF"/>
<path d="M23.5 13C19.9101 13 17 10.0899 17 6.5C17 2.91015 19.9101 0 23.5 0C27.0899 0 30 2.91015 30 6.5C30 10.0899 27.0899 13 23.5 13Z" fill="#A7D5FF"/>
<path d="M40.5 13C36.9101 13 34 10.0899 34 6.5C34 2.91015 36.9101 0 40.5 0C44.0899 0 47 2.91015 47 6.5C47 10.0899 44.0899 13 40.5 13Z" fill="#FFBCA7"/>
<path d="M58 13C54.6863 13 52 10.0899 52 6.5C52 2.91015 54.6863 0 58 0C61.3137 0 64 2.91015 64 6.5C64 10.0899 61.3137 13 58 13Z" fill="#B7E689"/>
<path d="M75.5 13C71.9101 13 69 10.0899 69 6.5C69 2.91015 71.9101 0 75.5 0C79.0899 0 82 2.91015 82 6.5C82 10.0899 79.0899 13 75.5 13Z" fill="#FFD772"/>
</svg>
